# xmcd
#
# Track frame offsets:
#	150
#	14970
#	30937
#	47785
#	72665
#	95572
#	113042
#	129620
#	137900
#	158250
#	176320
#	201872
#	227255
#	248875
#
# Disc length: 3557 seconds
#
# Revision: 1
# Processed by: cddbd v1.5.1PL0 Copyright (c) Steve Scherf et al.
# Submitted via: CDex 1.50Beta5
#
DISCID=b90de30e
DTITLE=MONGOL800 - MESSAGE
DYEAR=2001
DGENRE=Rock
TTITLE0=あなたに
TTITLE1=Song for you
TTITLE2=小さな恋のうた
TTITLE3=Melody
TTITLE4=月灯りの下で
TTITLE5=For Life
TTITLE6=親知らず-Summer Again-
TTITLE7=HEY Mommy
TTITLE8=Marriage Blue
TTITLE9=矛盾の上に咲く花
TTITLE10=琉球愛歌
TTITLE11=Dear My Lovers
TTITLE12=夢叶う
TTITLE13=Dandelion
EXTD=
EXTT0=
EXTT1=
EXTT2=
EXTT3=
EXTT4=
EXTT5=
EXTT6=
EXTT7=
EXTT8=
EXTT9=
EXTT10=
EXTT11=
EXTT12=
EXTT13=
PLAYORDER=
